<svg xmlns="http://www.w3.org/2000/svg" xmlns:xlink="http://www.w3.org/1999/xlink" width="512" height="512" viewBox="0 0 512 512">
    <defs>
        <path id="a" d="M0 160.23c0 7.008 7.876 11.198 13.783 7.332l47.983-31.407c5.872-3.841 9.4-10.341 9.4-17.306V26.614L0 .482V160.23z"/>
        <linearGradient id="b" x1="59.183%" x2="32.9%" y1="16.135%" y2="77.75%">
            <stop offset="0%" stop-color="#4C54DE"/>
            <stop offset="100%" stop-color="#8385A2"/>
        </linearGradient>
        <linearGradient id="e" x1="39.578%" x2="60.971%" y1="82.403%" y2="8.5%">
            <stop offset="0%" stop-opacity="0"/>
            <stop offset="59.995%" stop-opacity=".279"/>
            <stop offset="100%"/>
        </linearGradient>
        <path id="d" d="M0 .482l35.583 24.672 35.583 24.67v55.117L0 124.6z"/>
        <path id="f" d="M6.95 102.055c-9.093 5.873-9.126 19.049-.06 24.963l29.294 19.113c9.113 5.946 20.93 5.94 30.036-.019l146.131-95.597L163.698.85 6.95 102.055z"/>
        <linearGradient id="g" x1="9.248%" y1="50%" y2="50%">
            <stop offset="0%" stop-color="#32A4FF"/>
            <stop offset="100%" stop-color="#FF006E"/>
        </linearGradient>
        <linearGradient id="j" x1="78.117%" x2="0%" y1="32.675%" y2="67.036%">
            <stop offset="0%" stop-color="#231815"/>
            <stop offset="21.256%" stop-color="#4C4441" stop-opacity=".772"/>
            <stop offset="100%" stop-color="#D8D8D8" stop-opacity="0"/>
        </linearGradient>
        <path id="i" d="M121.329.85l61.889 40.89-130.07 84.514s-70.4 14.45-47.708-50.826L121.33.85z"/>
        <path id="k" d="M58.319 1.02a23.523 23.523 0 0 0-13.906 4.63L0 38.605l209.963 145.577 32.573-21.456c6.945-4.576 10.436-11.928 10.436-19.29v-.046c-.013-7.138-3.312-14.28-9.93-18.892L71.925 5.244A23.535 23.535 0 0 0 58.586 1.02h-.267z"/>
        <linearGradient id="l" x1="9.248%" y1="50%" y2="71.074%">
            <stop offset="0%" stop-color="#32A4FF"/>
            <stop offset="100%" stop-color="#FF006E"/>
        </linearGradient>
    </defs>
    <g fill="none" fill-rule="evenodd">
        <path fill="#9F9CA3" fill-rule="nonzero" d="M480.863 511.428H30.903C13.813 511.428 0 498.59 0 482.706V64.279c0-15.884 13.813-28.722 30.903-28.722h450.194c17.09 0 30.903 12.838 30.903 28.722v418.427c-.234 15.884-14.047 28.722-31.137 28.722z"/>
        <path fill="#DAD9DC" fill-rule="nonzero" d="M480.863 475.87H30.903C13.813 475.87 0 463.034 0 447.15V28.722C0 12.838 13.813 0 30.903 0h450.194C498.187 0 512 12.838 512 28.722v418.427c-.234 15.884-14.047 28.722-31.137 28.722z"/>
        <path fill="#C4C4C4" fill-rule="nonzero" d="M440.33 435.416H71.908c-17.352 0-31.376-12.853-31.376-28.756V69.21c0-15.903 14.024-28.756 31.376-28.756H440.09c17.352 0 31.376 12.853 31.376 28.757v337.45c0 15.902-14.024 28.755-31.138 28.755z"/>
        <path fill="#FFF" fill-rule="nonzero" d="M433.029 426.9H79.199c-16.664 0-30.132-12.3-30.132-27.516V76.487c0-15.217 13.468-27.516 30.132-27.516h353.602c16.664 0 30.132 12.299 30.132 27.516v322.897c0 15.217-13.468 27.516-29.904 27.516z"/>
        <path fill="#F0F0F0" fill-rule="nonzero" d="M478.756.213H33.01C14.749.213 0 13.627 0 30.234v5.962C0 19.588 14.749 6.175 33.01 6.175h445.98c18.261 0 33.01 13.413 33.01 30.021v-6.175C511.766 13.627 497.017.213 478.756.213z"/>
        <path fill="#C4C4C4" d="M138.754 148.651l44.696-33.363a23.58 23.58 0 0 1 13.995-4.687h.269a23.588 23.588 0 0 1 13.423 4.276l172.21 120.73c6.658 4.668 9.978 11.898 9.992 19.125v.046c0 7.453-3.514 14.896-10.503 19.53l-20.72 13.728.034.034-147.063 96.78a27.533 27.533 0 0 1-30.228.019l-29.48-19.35c-9.125-5.988-9.092-19.326.06-25.271l133.603-86.775-78.668-54.87v69.878c0 7.051-3.551 13.632-9.46 17.52l-48.29 31.796c-5.943 3.914-13.87-.328-13.87-7.423V148.65z"/>
        <path fill="#DAD9DC" d="M138.754 136.852l44.696-33.363a23.58 23.58 0 0 1 13.995-4.687h.269a23.588 23.588 0 0 1 13.423 4.276l172.21 120.73c6.658 4.667 9.978 11.898 9.992 19.125v.046c0 7.453-3.514 14.896-10.503 19.529l-20.72 13.73.034.033-147.063 96.78a27.533 27.533 0 0 1-30.228.018l-29.48-19.349c-9.125-5.988-9.092-19.326.06-25.272l133.603-86.775-78.668-54.868v69.877c0 7.051-3.551 13.632-9.46 17.52l-48.29 31.796c-5.943 3.914-13.87-.328-13.87-7.424V136.852z"/>
        <path d="M123.733 86.232h283.733v280.84H123.733z"/>
        <g transform="translate(139.14 126.514)">
            <mask id="c" fill="#fff">
                <use xlink:href="#a"/>
            </mask>
            <path fill="url(#b)" d="M0 160.23c0 7.008 7.876 11.198 13.783 7.332l47.983-31.407c5.872-3.841 9.4-10.341 9.4-17.306V26.614L0 .482V160.23z" mask="url(#c)"/>
        </g>
        <use fill="url(#e)" opacity=".6" transform="translate(139.14 126.514)" xlink:href="#d"/>
        <g transform="translate(148.769 214.197)">
            <mask id="h" fill="#fff">
                <use xlink:href="#f"/>
            </mask>
            <path fill="url(#g)" d="M6.95 102.055c-9.093 5.873-9.126 19.049-.06 24.963l29.294 19.113c9.113 5.946 20.93 5.94 30.036-.019l146.131-95.597L163.698.85 6.95 102.055z" mask="url(#h)"/>
        </g>
        <use fill="url(#j)" opacity=".6" transform="translate(191.136 214.197)" xlink:href="#i"/>
        <g transform="translate(139.14 88.39)">
            <mask id="m" fill="#fff">
                <use xlink:href="#k"/>
            </mask>
            <path fill="url(#l)" d="M58.319 1.02a23.523 23.523 0 0 0-13.906 4.63L0 38.605l209.963 145.577 32.573-21.456c6.945-4.576 10.436-11.928 10.436-19.29v-.046c-.013-7.138-3.312-14.28-9.93-18.892L71.925 5.244A23.535 23.535 0 0 0 58.586 1.02h-.267z" mask="url(#m)"/>
        </g>
        <ellipse cx="426.667" cy="454.579" fill="#5DAC00" rx="8.533" ry="8.517"/>
        <ellipse cx="460.8" cy="454.579" fill="#E12239" rx="8.533" ry="8.517"/>
        <rect width="115.2" height="8.517" x="198.4" y="487.581" fill="#FFF" rx="4"/>
    </g>
</svg>
